<?xml version="1.0" encoding="utf-8"?>
<!-- Generator: Adobe Illustrator 19.0.1, SVG Export Plug-In . SVG Version: 6.00 Build 0)  -->
<svg version="1.1" id="Слой_1" xmlns="http://www.w3.org/2000/svg" xmlns:xlink="http://www.w3.org/1999/xlink" x="0px" y="0px"
	 viewBox="0 0 64 64" style="enable-background:new 0 0 64 64;" xml:space="preserve">
<g>
	<path style="fill:#36393E;" d="M59.9,53c0,0.3-0.1,0.5-0.2,0.7s-0.4,0.3-0.8,0.4s-0.9,0.2-1.5,0.3s-1.4,0.1-2.4,0.1
		c-1,0-1.8,0-2.4-0.1s-1.1-0.2-1.5-0.3s-0.6-0.3-0.8-0.5s-0.3-0.5-0.4-0.8l-3.3-10.3c-0.4-1.5-0.9-2.7-1.5-3.6s-1.1-1.8-1.8-2.4
		s-1.4-1-2.3-1.3s-1.8-0.4-2.9-0.4h-1.8V53c0,0.3-0.1,0.5-0.2,0.7s-0.4,0.3-0.7,0.5s-0.8,0.2-1.4,0.3s-1.3,0.1-2.2,0.1
		s-1.6,0-2.2-0.1s-1-0.2-1.4-0.3s-0.6-0.3-0.7-0.5s-0.2-0.4-0.2-0.7V34.8h-1.8c-1.1,0-2.2,0.1-3,0.4S21,36,20.4,36.6
		S19.1,38,18.6,39s-0.9,2.1-1.4,3.5L14,52.7c-0.1,0.3-0.3,0.6-0.4,0.8s-0.5,0.4-0.8,0.5s-0.9,0.2-1.5,0.3s-1.4,0.1-2.4,0.1
		s-1.8,0-2.4-0.1S5.4,54.2,5,54.1c-0.4-0.1-0.6-0.3-0.8-0.4S4,53.3,4,53c0-0.1,0-0.3,0-0.4c0-0.2,0-0.4,0.1-0.6
		c0.1-0.2,0.1-0.5,0.2-0.8c0.1-0.3,0.2-0.7,0.4-1.1l3.2-9.1c0.6-1.7,1.2-3.1,1.8-4.3s1.2-2.1,1.9-2.9s1.4-1.4,2.1-1.9
		c0.8-0.5,1.6-0.9,2.6-1.3v0c-0.8-0.3-1.6-0.6-2.3-1.1c-0.7-0.4-1.3-1-1.9-1.8s-1.2-1.7-1.7-2.8c-0.6-1.1-1.1-2.4-1.6-4L6,12.8
		c-0.3-0.8-0.4-1.3-0.5-1.8c-0.1-0.4-0.1-0.8-0.1-1.1c0-0.3,0.1-0.5,0.2-0.7S5.9,9,6.3,8.9s0.8-0.2,1.4-0.2C8.3,8.6,9,8.5,10,8.5
		c1,0,1.8,0,2.4,0.1c0.6,0.1,1.1,0.2,1.4,0.3c0.4,0.1,0.6,0.3,0.8,0.5c0.2,0.2,0.3,0.5,0.4,0.8l2.9,9.6c0.4,1.3,0.8,2.5,1.3,3.4
		s1,1.7,1.6,2.2s1.3,1,2.1,1.2s1.7,0.4,2.8,0.4h1.8V10c0-0.3,0.1-0.5,0.2-0.7S28,9,28.3,8.9c0.3-0.1,0.8-0.2,1.4-0.3
		c0.6-0.1,1.3-0.1,2.2-0.1s1.6,0,2.2,0.1c0.6,0.1,1,0.1,1.4,0.3c0.3,0.1,0.6,0.3,0.7,0.4s0.2,0.4,0.2,0.7v17.1h1.8
		c1.1,0,2-0.1,2.8-0.4c0.8-0.3,1.5-0.7,2.1-1.3c0.6-0.6,1.2-1.3,1.6-2.2c0.5-0.9,0.9-2,1.3-3.3l2.9-9.6c0.1-0.3,0.2-0.6,0.4-0.8
		c0.2-0.2,0.4-0.4,0.8-0.5c0.4-0.1,0.8-0.2,1.4-0.3C52.2,8.6,53,8.5,54,8.5c0.9,0,1.7,0,2.3,0.1c0.6,0.1,1.1,0.1,1.4,0.2
		s0.6,0.2,0.7,0.4s0.2,0.4,0.2,0.7c0,0.3-0.1,0.7-0.2,1.1c-0.1,0.4-0.3,1-0.5,1.8l-2.7,8c-0.5,1.5-1,2.8-1.6,3.8
		c-0.5,1.1-1.1,2-1.7,2.7c-0.6,0.7-1.2,1.3-2,1.8c-0.7,0.5-1.5,0.9-2.4,1.2v0c1,0.4,1.9,0.9,2.6,1.4s1.5,1.2,2.1,2s1.3,1.8,1.8,2.9
		s1.1,2.6,1.8,4.3l3.1,9.1c0.2,0.4,0.3,0.8,0.4,1.1s0.2,0.6,0.2,0.8s0.1,0.4,0.1,0.6S59.9,52.9,59.9,53z"/>
</g>
</svg>
