<?xml version="1.0" encoding="utf-8"?>
<!-- Generator: Adobe Illustrator 19.0.1, SVG Export Plug-In . SVG Version: 6.00 Build 0)  -->
<svg version="1.1" id="Слой_1" xmlns="http://www.w3.org/2000/svg" xmlns:xlink="http://www.w3.org/1999/xlink" x="0px" y="0px"
	 viewBox="0 0 64 64" style="enable-background:new 0 0 64 64;" xml:space="preserve">
<g>
	<path style="fill:#36393E;" d="M44.5,54.5c0,0.3,0,0.5-0.1,0.7s-0.2,0.3-0.4,0.4s-0.4,0.2-0.7,0.2s-0.6,0.1-1,0.1
		c-0.5,0-0.9,0-1.2-0.1c-0.3-0.1-0.5-0.1-0.6-0.2s-0.2-0.2-0.3-0.4s-0.1-0.3-0.1-0.5L38,42.9c-0.3-1.5-0.7-2.8-1.2-3.9
		s-1.2-2-2.1-2.7s-1.9-1.3-3.1-1.6s-2.6-0.5-4.1-0.5h-2.8l-4.2,20.8c0,0.1-0.1,0.3-0.2,0.4s-0.2,0.2-0.4,0.3
		c-0.2,0.1-0.4,0.1-0.7,0.2c-0.3,0-0.6,0.1-1,0.1c-0.4,0-0.8,0-1-0.1c-0.3,0-0.5-0.1-0.6-0.2c-0.2-0.1-0.3-0.2-0.3-0.3
		c0-0.1,0-0.2,0-0.4l8.8-44.1c0-0.1,0.1-0.3,0.2-0.4c0.1-0.1,0.3-0.2,0.4-0.3S26,10,26.3,10c0.3,0,0.6-0.1,1-0.1s0.7,0,1,0.1
		c0.3,0,0.5,0.1,0.6,0.2s0.3,0.2,0.3,0.3c0,0.1,0.1,0.2,0,0.4l-3.9,19.4h2.8c1.6,0,3-0.2,4.2-0.6c1.3-0.4,2.4-0.9,3.4-1.7
		c1-0.7,2-1.6,2.9-2.7c0.9-1.1,1.7-2.3,2.5-3.8l5.7-10.4c0.1-0.2,0.2-0.4,0.4-0.6c0.1-0.2,0.3-0.3,0.5-0.4s0.5-0.2,0.8-0.2
		c0.3-0.1,0.7-0.1,1.2-0.1c0.4,0,0.8,0,1,0.1s0.4,0.1,0.6,0.2s0.2,0.2,0.3,0.2c0,0.1,0.1,0.2,0.1,0.3c0,0.2-0.1,0.5-0.2,0.8
		c-0.1,0.3-0.3,0.6-0.4,0.9l-5.9,10.2c-0.8,1.4-1.6,2.6-2.4,3.6c-0.8,1-1.6,1.9-2.4,2.7c-0.8,0.8-1.7,1.4-2.6,1.9
		c-0.9,0.5-1.9,0.9-3,1.2l0,0.1c1.1,0.4,2.1,0.8,2.8,1.3c0.8,0.5,1.5,1.1,2.1,1.9s1.1,1.7,1.4,2.7s0.7,2.3,1,3.8l2.3,11.6
		c0,0.1,0.1,0.3,0.1,0.5S44.5,54.3,44.5,54.5z"/>
</g>
</svg>
