<?xml version="1.0" encoding="iso-8859-1"?>
<!-- Generator: Adobe Illustrator 18.0.0, SVG Export Plug-In . SVG Version: 6.00 Build 0)  -->
<!DOCTYPE svg PUBLIC "-//W3C//DTD SVG 1.1//EN" "http://www.w3.org/Graphics/SVG/1.1/DTD/svg11.dtd">
<svg xmlns="http://www.w3.org/2000/svg" xmlns:xlink="http://www.w3.org/1999/xlink" version="1.1" id="Capa_1" x="0px" y="0px" viewBox="0 0 297 297" style="enable-background:new 0 0 297 297;" xml:space="preserve" width="512px" height="512px">
<path d="M287.23,159.341h-21.06v-57.532h21.06c5.396,0,9.77-4.375,9.77-9.77c0-5.396-4.374-9.77-9.77-9.77H172.586  c-6.744-4.986-15.075-7.941-24.086-7.941c-9.012,0-17.343,2.955-24.086,7.941H9.769C4.374,82.27,0,86.644,0,92.039  c0,5.395,4.374,9.77,9.769,9.77h21.06v57.532H9.769c-5.395,0-9.769,4.375-9.769,9.77c0,5.395,4.374,9.77,9.769,9.77h75.486  c-0.335,1.974-0.078,4.065,0.886,5.993c1.712,3.425,5.161,5.403,8.746,5.403c1.468,0,2.959-0.332,4.361-1.033l4.31-2.155  c0.424,0.569,0.866,1.124,1.311,1.677l-17.229,17.228c-3.815,3.815-3.815,10.002,0,13.817c1.908,1.907,4.407,2.861,6.908,2.861  c2.5,0,5-0.954,6.908-2.861l18.148-18.147c8.442,5.104,18.33,8.047,28.895,8.047c10.563,0,20.452-2.942,28.894-8.047l18.148,18.147  c1.908,1.907,4.407,2.861,6.908,2.861c2.501,0,5-0.954,6.908-2.861c3.815-3.815,3.815-10.002,0-13.817l-17.227-17.228  c2.456-3.049,4.596-6.361,6.377-9.885h88.723c5.396,0,9.77-4.375,9.77-9.77C297,163.716,292.626,159.341,287.23,159.341z   M164.888,134.58c-2.404-2.065-5.235-3.713-8.423-4.775c-2.582-0.86-5.262-1.297-7.968-1.297c-10.855,0-20.455,6.922-23.888,17.225  c-1.063,3.188-1.445,6.44-1.234,9.603l-10.672,5.336c-0.438-2.258-0.677-4.589-0.677-6.974c0-20.112,16.361-36.475,36.474-36.475  c10.716,0,20.365,4.646,27.044,12.029L164.888,134.58z M162.846,99.553c-4.582-1.214-9.388-1.869-14.346-1.869  s-9.764,0.655-14.346,1.869c3.765-3.515,8.801-5.685,14.346-5.685C154.045,93.867,159.081,96.038,162.846,99.553z M50.368,101.809  h59.721c-1.411,4.119-2.188,8.528-2.188,13.118c0,0.077,0.01,0.152,0.012,0.228c-9.548,10.05-15.426,23.618-15.426,38.542  c0,1.905,0.097,3.787,0.284,5.644H50.368V101.809z M121.455,178.142l10.657-5.33c2.404,2.066,5.235,3.714,8.424,4.776  c2.581,0.86,5.261,1.298,7.967,1.298c10.855,0,20.455-6.923,23.888-17.225c1.064-3.189,1.444-6.441,1.234-9.604l10.672-5.336  c0.438,2.26,0.677,4.59,0.677,6.977c0,20.111-16.361,36.473-36.474,36.473C137.784,190.17,128.134,185.523,121.455,178.142z   M202.193,137.773l4.294-2.146c4.827-2.413,6.783-8.281,4.37-13.107c-2.413-4.827-8.281-6.783-13.107-4.37l-4.31,2.154  c-1.345-1.805-2.805-3.517-4.354-5.147c0.002-0.076,0.012-0.151,0.012-0.228c0-4.59-0.776-8.999-2.188-13.118h59.721v57.532h-42.403  c0.187-1.856,0.284-3.738,0.284-5.644C204.513,148.165,203.694,142.823,202.193,137.773z" fill="#848484"/>
<g>
</g>
<g>
</g>
<g>
</g>
<g>
</g>
<g>
</g>
<g>
</g>
<g>
</g>
<g>
</g>
<g>
</g>
<g>
</g>
<g>
</g>
<g>
</g>
<g>
</g>
<g>
</g>
<g>
</g>
</svg>
