<?xml version="1.0" encoding="iso-8859-1"?>
<!-- Generator: Adobe Illustrator 19.0.0, SVG Export Plug-In . SVG Version: 6.00 Build 0)  -->
<svg version="1.1" id="Layer_1" xmlns="http://www.w3.org/2000/svg" xmlns:xlink="http://www.w3.org/1999/xlink" x="0px" y="0px"
	 viewBox="0 0 512 512" style="enable-background:new 0 0 512 512;" xml:space="preserve">
<path style="fill:#3E3D43;" d="M512,110.73c0,0-148.205,7.216-251.417,67.196S100.617,306.219,138.236,327.937
	c37.619,21.72,155.367-11.378,258.579-71.358c19.979-11.61,36.535-24.192,50.253-36.93l-41.508-12.919l45.712,8.922
	c3.165-3.075,6.166-6.156,9.015-9.229l-56.741-12.815l61.637,7.37C505.929,154.258,512,110.73,512,110.73"/>
<path style="fill:#ACABB1;" d="M446.506,142.475c-0.18-0.347-3.259,1.008-8.199,3.469c-19.963,9.261-70.732,34.601-88.548,45.883
	L43.323,367.754c-1.495-0.703-2.839-0.714-3.84-0.132L10.25,384.236c0.004-0.002,0.008-0.003,0.011-0.005
	c-0.319,0.183-0.591,0.441-0.835,0.74l-0.009-0.018c0,0-9.648,15.376-9.412,16.067c0.336,0.982,17.543-1.233,17.543-1.233
	l-0.007-0.014c0.643-0.024,1.223-0.204,1.707-0.542c-0.068,0.047-0.132,0.1-0.203,0.141l29.233-16.614
	c1.02-0.592,1.678-1.8,1.789-3.499L354.89,201.971C356.627,200.962,448.123,145.603,446.506,142.475z"/>
<path style="fill:#E0E0E2;" d="M16.625,383.081L349.76,191.827c22.211-14.065,95.648-49.986,96.747-49.352L20.034,383.414
	c-1.098-0.634-2.204-0.84-3.108-0.48C16.821,382.976,16.72,383.025,16.625,383.081z"/>
<path style="fill:#C6C5CB;" d="M354.89,201.971L23.421,394.755c1.738-1.009,1.876-4.169,0.26-7.298
	c-0.946-1.828-2.29-3.262-3.647-4.045l333.135-191.253c10.982-6.134,92.391-51.511,93.337-49.684
	C448.123,145.604,356.627,200.962,354.89,201.971z"/>
<path style="fill:#D8D8DA;" d="M20.034,383.414c1.355,0.783,2.701,2.217,3.647,4.045c1.707,3.305,1.457,6.645-0.568,7.448
	c-0.904,0.363-2.008,0.158-3.107-0.476c-1.356-0.783-2.702-2.219-3.648-4.048c-1.707-3.305-1.452-6.637,0.568-7.447
	C17.83,382.574,18.936,382.779,20.034,383.414z"/>
<path style="fill:#898890;" d="M43.903,368.055c-1.727-0.997-3.291-1.089-4.421-0.433l-29.233,16.614
	c0.004-0.002,0.008-0.003,0.011-0.005c-0.319,0.183-0.591,0.441-0.835,0.74l-0.009-0.018c0,0-9.648,15.376-9.412,16.067
	c0.336,0.982,17.543-1.233,17.543-1.233l-0.007-0.014c0.644-0.025,1.224-0.204,1.708-0.543c-0.068,0.047-0.133,0.1-0.204,0.142
	l29.233-16.614c1.115-0.648,1.807-2.026,1.812-3.985C50.101,374.834,47.33,370.034,43.903,368.055z"/>
<path style="fill:#ACABB1;" d="M43.903,368.055c-1.727-0.997-3.291-1.089-4.421-0.433l-29.233,16.614
	c1.13-0.656,2.694-0.564,4.421,0.433c3.427,1.979,6.198,6.779,6.188,10.718c-0.005,1.959-0.697,3.337-1.812,3.985l29.233-16.614
	c1.115-0.648,1.807-2.026,1.812-3.985C50.101,374.834,47.33,370.034,43.903,368.055z"/>
<g>
</g>
<g>
</g>
<g>
</g>
<g>
</g>
<g>
</g>
<g>
</g>
<g>
</g>
<g>
</g>
<g>
</g>
<g>
</g>
<g>
</g>
<g>
</g>
<g>
</g>
<g>
</g>
<g>
</g>
</svg>
