<?xml version="1.0" encoding="utf-8"?>
<!-- Generator: Adobe Illustrator 19.0.1, SVG Export Plug-In . SVG Version: 6.00 Build 0)  -->
<svg version="1.1" id="Layer_1" xmlns="http://www.w3.org/2000/svg" xmlns:xlink="http://www.w3.org/1999/xlink" x="0px" y="0px"
	 viewBox="224 -224 512 512" style="enable-background:new 224 -224 512 512;" xml:space="preserve">
<g>
	<path style="fill:#B25B5B;" d="M577.1,288H382.9c-14.6,0-26.5-11.9-26.5-26.5v-459c0-14.6,11.9-26.5,26.5-26.5h194.2
		c14.6,0,26.5,11.9,26.5,26.5v459C603.6,276.1,591.7,288,577.1,288"/>
	<path style="fill:#DB8080;" d="M577.1,252.7H382.9c-14.6,0-26.5-11.9-26.5-26.5v-423.7c0-14.6,11.9-26.5,26.5-26.5h194.2
		c14.6,0,26.5,11.9,26.5,26.5v423.7C603.6,240.8,591.7,252.7,577.1,252.7"/>
	<path style="fill:#36393E;" d="M577.1,217.4H382.9c-14.6,0-26.5-11.9-26.5-26.5v-388.4c0-14.6,11.9-26.5,26.5-26.5h194.2
		c14.6,0,26.5,11.9,26.5,26.5v388.4C603.6,205.5,591.7,217.4,577.1,217.4"/>
	<polygon style="fill:#E74C3C;" points="356.4,5.5 603.6,5.5 603.6,-12.1 356.4,-12.1 	"/>
</g>
</svg>
