<?xml version="1.0" encoding="utf-8"?>
<!-- Generator: Adobe Illustrator 19.0.1, SVG Export Plug-In . SVG Version: 6.00 Build 0)  -->
<svg version="1.1" id="Layer_1" xmlns="http://www.w3.org/2000/svg" xmlns:xlink="http://www.w3.org/1999/xlink" x="0px" y="0px"
	 viewBox="198 -198 460 460" style="enable-background:new 198 -198 460 460;" xml:space="preserve">
<polygon style="fill:#36393E;" points="540.1,-193.8 231.8,114.5 228.5,187.2 215.3,200.3 259.7,244.7 272.8,231.5 345.5,228.2 
	653.8,-80.1 "/>
<path style="fill:#E74C3C;" d="M204.9,259.1l-4.1-4.1c-3.2-3.2-3.8-8.2-1.4-12l22.5-36.1l31.1,31.1L217,260.5
	C213.1,262.9,208.1,262.4,204.9,259.1z"/>
<rect x="548.7" y="-161" transform="matrix(0.7071 0.7071 -0.7071 0.7071 73.8792 -472.1785)" style="fill:#E74C3C;" width="116.4" height="28.1"/>
<path style="opacity:0.3;fill:#36393E;enable-background:new    ;" d="M272.8,231.5l-13.1,13.1l-6.6-6.6L217,260.5
	c-3.8,2.4-8.8,1.8-12-1.4l-2-2l413.9-413.9l41.2,41.2l-19.9,19.9l15.7,15.7L345.5,228.2L272.8,231.5z"/>
</svg>
