<?xml version="1.0" encoding="utf-8"?>
<!-- Generator: Adobe Illustrator 19.0.1, SVG Export Plug-In . SVG Version: 6.00 Build 0)  -->
<svg version="1.1" id="Слой_1" xmlns="http://www.w3.org/2000/svg" xmlns:xlink="http://www.w3.org/1999/xlink" x="0px" y="0px"
	 viewBox="0 0 64 64" style="enable-background:new 0 0 64 64;" xml:space="preserve">
<g>
	<path style="fill:#36393E;" d="M46.3,52.7c0,0.2,0,0.3-0.1,0.5s-0.3,0.3-0.5,0.3c-0.2,0.1-0.5,0.2-0.9,0.2s-0.9,0.1-1.4,0.1
		c-0.5,0-1,0-1.4-0.1s-0.7-0.1-1-0.2c-0.2-0.1-0.4-0.2-0.5-0.3s-0.2-0.3-0.2-0.5V35.3c-1.4,0.1-2.7,0.3-4,0.4s-2.6,0.2-3.9,0.2
		c-2.3,0-4.3-0.2-6.3-0.5s-3.6-1.1-5.1-2.1s-2.5-2.4-3.4-4.2c-0.8-1.8-1.2-4.1-1.2-7V9c0-0.2,0-0.3,0.1-0.5c0.1-0.1,0.3-0.3,0.5-0.3
		C17.3,8.1,17.6,8,18,8c0.4-0.1,0.9-0.1,1.4-0.1c0.6,0,1.1,0,1.4,0.1c0.4,0.1,0.7,0.1,0.9,0.2c0.3,0.1,0.4,0.2,0.5,0.3
		s0.1,0.3,0.1,0.5v12.5c0,1.4,0.2,2.7,0.5,3.8s0.8,2.1,1.6,2.9c0.8,0.8,1.8,1.4,3.2,1.8s3,0.6,5.1,0.6c1.3,0,2.5,0,3.8-0.1
		c1.2-0.1,2.5-0.2,3.7-0.3V9c0-0.2,0.1-0.3,0.2-0.5s0.3-0.3,0.5-0.3C41.2,8.1,41.6,8,42,8c0.4-0.1,0.9-0.1,1.4-0.1
		c0.6,0,1.1,0,1.4,0.1c0.4,0.1,0.7,0.1,0.9,0.2c0.2,0.1,0.4,0.2,0.5,0.3s0.1,0.3,0.1,0.5V52.7z"/>
</g>
<line style="fill:#36393E;stroke:#36393E;stroke-width:4;stroke-linecap:round;stroke-miterlimit:10;" x1="16" y1="59" x2="47" y2="59"/>
</svg>
