<?xml version="1.0" encoding="iso-8859-1"?>
<!-- Generator: Adobe Illustrator 18.1.1, SVG Export Plug-In . SVG Version: 6.00 Build 0)  -->
<svg xmlns="http://www.w3.org/2000/svg" xmlns:xlink="http://www.w3.org/1999/xlink" version="1.1" id="Capa_1" x="0px" y="0px" viewBox="0 0 19.135 19.135" style="enable-background:new 0 0 19.135 19.135;" xml:space="preserve" width="512px" height="512px">
<g>
	<path d="M16.122,9.194h-0.077c-0.21-1.844-1.773-3.277-3.675-3.277c-0.657,0-1.273,0.174-1.81,0.473   c-0.707-1.467-2.211-2.48-3.952-2.48c-2.422,0-4.388,1.965-4.388,4.387c0,0.336,0.039,0.664,0.111,0.979   C0.996,9.586,0,10.781,0,12.211c0,1.664,1.351,3.014,3.015,3.014l0.489-0.021H15.59l0.531,0.021c1.664,0,3.014-1.35,3.014-3.014   S17.786,9.195,16.122,9.194z" fill="#FFFFFF"/>
</g>
<g>
</g>
<g>
</g>
<g>
</g>
<g>
</g>
<g>
</g>
<g>
</g>
<g>
</g>
<g>
</g>
<g>
</g>
<g>
</g>
<g>
</g>
<g>
</g>
<g>
</g>
<g>
</g>
<g>
</g>
</svg>
