<?xml version="1.0" encoding="utf-8"?>
<!-- Generator: Adobe Illustrator 19.0.1, SVG Export Plug-In . SVG Version: 6.00 Build 0)  -->
<svg version="1.1" id="Layer_1" xmlns="http://www.w3.org/2000/svg" xmlns:xlink="http://www.w3.org/1999/xlink" x="0px" y="0px"
	 viewBox="-223 25 512 512" style="enable-background:new -223 25 512 512;" xml:space="preserve">
<style type="text/css">
	.st0{fill:#F5F5F5;}
	.st1{fill:#E6E6E6;}
	.st2{fill:#999999;}
	.st3{fill:#B3B3B3;}
	.st4{fill:#CCCCCC;}
</style>
<g>
	<g>
		<path class="st0" d="M-67,115.3c-1.3,0-2.6,0.1-3.9,0.3c-7.3-9.8-18.9-16.3-32.1-16.3c-22.1,0-40,17.9-40,40
			c0,1.3,0.1,2.6,0.2,3.9c-4.9,3.6-8.2,10.3-8.2,16.9c0,11,8.9,20.8,20,20.8c4.3,0,22.1,0,28,0c6.9,0,29.8,0,36,0
			c17.7,0,32-15.2,32-32.8S-49.3,115.3-67,115.3z"/>
		<path class="st1" d="M-67,115.3c-1.3,0-2.6,0.1-3.9,0.3c-7.3-9.8-18.9-16.3-32.1-16.3c-1.4,0-2.8,0.1-4.2,0.2
			c11.6,1.1,21.8,7.1,28.4,16c1.3-0.2,2.6-0.3,3.9-0.3c17.7,0,32,15.2,32,32.8S-57.3,181-75,181c3.4,0,6.3,0,8,0
			c17.7,0,32-15.2,32-32.8S-49.3,115.3-67,115.3z"/>
	</g>
	<g>
		<path class="st0" d="M-167,217.3c-0.3,0-0.5,0-0.8-0.2c-1-0.4-1.5-1.6-1.1-2.6c1-2.4,2.2-4.9,3.4-7.4c0.5-1,1.7-1.4,2.7-0.9
			c1,0.5,1.4,1.7,0.9,2.7c-1.2,2.4-2.3,4.8-3.3,7.1C-165.5,216.9-166.2,217.3-167,217.3z"/>
		<path class="st0" d="M113,413.3c-2.4,0-4.8-0.2-7.2-0.6c-1.1-0.2-1.8-1.2-1.6-2.3c0.2-1.1,1.2-1.8,2.3-1.6
			c5.2,0.9,10.5,0.6,15.5,0.2c1.1-0.1,2.1,0.7,2.2,1.8c0.1,1.1-0.7,2.1-1.8,2.2C119.3,413.2,116.2,413.3,113,413.3z M153.4,405.1
			c-0.8,0-1.5-0.4-1.8-1.2c-0.4-1,0-2.2,1-2.6c4.8-2.1,9.4-4.6,13.9-7.5c0.9-0.6,2.2-0.4,2.8,0.6c0.6,0.9,0.4,2.2-0.6,2.8
			c-4.6,3-9.5,5.7-14.5,7.9C153.9,405.1,153.6,405.1,153.4,405.1z M78.1,397.8c-0.5,0-0.9-0.2-1.3-0.5c-3.8-3.3-7.6-7-11.7-11.4
			c-0.8-0.8-0.7-2.1,0.1-2.8c0.8-0.7,2.1-0.7,2.8,0.1c4,4.3,7.7,8,11.4,11.1c0.8,0.7,0.9,2,0.2,2.8
			C79.2,397.6,78.6,397.8,78.1,397.8z M-88.2,386.3c-0.9,0-1.7-0.6-1.9-1.5c-0.3-1.1,0.3-2.2,1.4-2.5c4.7-1.3,9.4-3.5,14-6.6
			c0.9-0.6,2.2-0.3,2.8,0.6c0.6,0.9,0.4,2.2-0.6,2.8c-5,3.3-10,5.7-15.1,7.1C-87.9,386.3-88,386.3-88.2,386.3z M-119.7,383.5
			c-0.3,0-0.5-0.1-0.8-0.2c-5.1-2.2-9.9-5.2-14.2-8.8c-0.8-0.7-1-2-0.2-2.8c0.7-0.9,2-1,2.8-0.2c4,3.3,8.4,6.1,13.2,8.2
			c1,0.4,1.5,1.6,1,2.6C-118.2,383.1-119,383.5-119.7,383.5z M191.4,375.9c-0.5,0-0.9-0.2-1.3-0.5c-0.9-0.7-1-2-0.3-2.8
			c3.3-4,6.5-8.3,9.4-12.8c0.6-0.9,1.8-1.2,2.8-0.6c0.9,0.6,1.2,1.8,0.6,2.8c-3,4.7-6.3,9.1-9.7,13.2
			C192.5,375.6,192,375.9,191.4,375.9z M46,361.5c-0.6,0-1.2-0.3-1.6-0.8c-3.2-4.2-6.4-8.6-9.7-13c-0.7-0.9-0.5-2.1,0.4-2.8
			c0.9-0.7,2.1-0.5,2.8,0.4c3.2,4.4,6.4,8.7,9.6,13c0.7,0.9,0.5,2.1-0.4,2.8C46.9,361.4,46.4,361.5,46,361.5z M-50.4,357.2
			c-0.4,0-0.9-0.1-1.3-0.4c-0.9-0.7-1-1.9-0.3-2.8c3.1-3.8,6.2-8,9.6-12.8c0.6-0.9,1.9-1.1,2.8-0.5c0.9,0.6,1.1,1.9,0.5,2.8
			c-3.5,4.9-6.7,9.2-9.8,13C-49.3,356.9-49.8,357.2-50.4,357.2z M-151.3,348.6c-0.8,0-1.6-0.5-1.9-1.3c-1.8-5.2-3-10.6-3.5-16.2
			c-0.1-1.1,0.7-2.1,1.8-2.2c1.1-0.1,2.1,0.7,2.2,1.8c0.5,5.3,1.6,10.4,3.3,15.3c0.4,1-0.2,2.2-1.2,2.5
			C-150.9,348.6-151.1,348.6-151.3,348.6z M215.6,334.1c-0.3,0-0.5,0-0.7-0.1c-1-0.4-1.5-1.6-1.1-2.6c1.9-4.9,3.7-9.9,5.3-15.1
			c0.3-1.1,1.4-1.7,2.5-1.3c1.1,0.3,1.6,1.4,1.3,2.5c-1.6,5.3-3.4,10.4-5.4,15.4C217.2,333.7,216.4,334.1,215.6,334.1z M17,322.6
			c-0.6,0-1.2-0.3-1.6-0.8c-3.6-4.6-6.9-8.7-10.1-12.6c-0.7-0.9-0.6-2.1,0.3-2.8c0.8-0.7,2.1-0.6,2.8,0.3c3.2,3.9,6.5,8,10.1,12.7
			c0.7,0.9,0.5,2.1-0.4,2.8C17.9,322.5,17.4,322.6,17,322.6z M-22.7,317.4c-0.4,0-0.8-0.1-1.1-0.3c-0.9-0.6-1.2-1.8-0.6-2.8
			c3-4.6,6-9.1,9-13.5c0.6-0.9,1.9-1.1,2.8-0.5c0.9,0.6,1.1,1.9,0.5,2.8c-3,4.3-6,8.8-9,13.4C-21.5,317.1-22.1,317.4-22.7,317.4z
			 M-150.5,301.2c-0.2,0-0.5,0-0.7-0.1c-1-0.4-1.5-1.6-1.2-2.6c2-5.2,4.6-10.1,7.8-14.7c0.6-0.9,1.9-1.1,2.8-0.5s1.1,1.9,0.5,2.8
			c-3,4.2-5.5,8.9-7.3,13.8C-149,300.7-149.7,301.2-150.5,301.2z M228.2,287.4c-0.1,0-0.2,0-0.3,0c-1.1-0.2-1.8-1.2-1.7-2.3
			c0.3-2,0.6-4,0.8-6c0.4-3.2,0.6-6.4,0.6-9.7c0-1.1,1.6-2,2.7-2c1.1,0,2.7,0.9,2.7,2v0c0,3.5-0.9,6.9-1.3,10.2
			c-0.3,2-0.9,4.1-1.2,6.1C230.3,286.7,229.1,287.4,228.2,287.4z M-15.2,286.4c-0.5,0-1-0.2-1.4-0.5c-4.1-3.8-8.2-7.2-12.2-10.2
			c-0.9-0.7-1.1-1.9-0.4-2.8c0.7-0.9,1.9-1.1,2.8-0.4c4.1,3.1,8.4,6.6,12.6,10.5c0.8,0.7,0.9,2,0.1,2.8
			C-14.1,286.2-14.6,286.4-15.2,286.4z M-118.7,266.1c-0.7,0-1.4-0.4-1.8-1.1c-0.5-1-0.1-2.2,0.9-2.7c4.8-2.4,10-4.4,15.5-5.9
			c1.1-0.3,2.2,0.3,2.4,1.4s-0.3,2.2-1.4,2.4c-5.2,1.4-10.1,3.3-14.7,5.6C-118.1,266.1-118.4,266.1-118.7,266.1z M-55.9,261
			c-0.2,0-0.4,0-0.6-0.1c-5-1.6-10.2-2.7-15.3-3.3c-1.1-0.1-1.9-1.1-1.8-2.2c0.1-1.1,1.1-1.9,2.2-1.8c5.4,0.6,10.8,1.7,16.1,3.4
			c1.1,0.3,1.6,1.5,1.3,2.5C-54.3,260.5-55.1,261-55.9,261z M224.3,239.6c-0.8,0-1.6-0.5-1.9-1.4c-1.6-4.9-3.5-9.9-5.8-14.8
			c-0.5-1,0-2.2,1-2.7c1-0.5,2.2,0,2.7,1c2.3,5.1,4.3,10.2,6,15.2c0.3,1.1-0.2,2.2-1.3,2.5C224.7,239.6,224.5,239.6,224.3,239.6z
			 M202.1,196.7c-0.6,0-1.2-0.3-1.6-0.8c-3-4.3-6.3-8.5-9.8-12.7c-0.7-0.8-0.6-2.1,0.3-2.8c0.8-0.7,2.1-0.6,2.8,0.3
			c3.5,4.2,6.9,8.6,9.9,12.9c0.6,0.9,0.4,2.2-0.5,2.8C202.9,196.6,202.5,196.7,202.1,196.7z M-145.7,183.3c-0.4,0-0.9-0.1-1.3-0.5
			c-0.9-0.7-1-2-0.3-2.8c3.4-4.1,7-8.2,10.9-12.2c0.8-0.8,2-0.8,2.8-0.1c0.8,0.8,0.8,2,0.1,2.8c-3.8,3.9-7.3,7.9-10.6,11.9
			C-144.6,183-145.1,183.3-145.7,183.3z M169.9,160.6c-0.5,0-1-0.2-1.3-0.5c-3.9-3.5-8-7-12.2-10.3c-0.9-0.7-1-1.9-0.3-2.8
			c0.7-0.9,1.9-1,2.8-0.3c4.3,3.4,8.5,6.9,12.4,10.5c0.8,0.7,0.9,2,0.1,2.8C171,160.4,170.4,160.6,169.9,160.6z M-110.9,149.7
			c-0.6,0-1.2-0.3-1.6-0.8c-0.7-0.9-0.5-2.1,0.4-2.8c4.3-3.3,8.7-6.5,13.2-9.6c0.9-0.6,2.2-0.4,2.8,0.5c0.6,0.9,0.4,2.2-0.5,2.8
			c-4.4,3-8.8,6.1-13,9.4C-110.1,149.5-110.5,149.7-110.9,149.7z M130.9,131.9c-0.3,0-0.7-0.1-1-0.3c-4.6-2.7-9.3-5.3-14.1-7.7
			c-1-0.5-1.4-1.7-0.9-2.7c0.5-1,1.7-1.4,2.7-0.9c4.8,2.4,9.6,5.1,14.3,7.8c1,0.6,1.3,1.8,0.7,2.7
			C132.3,131.6,131.6,131.9,130.9,131.9z M-69.9,124c-0.7,0-1.4-0.4-1.8-1.1c-0.5-1-0.1-2.2,0.9-2.7c4.9-2.4,9.9-4.6,14.9-6.7
			c1-0.4,2.2,0.1,2.6,1.1s-0.1,2.2-1.1,2.6c-4.9,2-9.8,4.2-14.6,6.6C-69.3,123.9-69.6,124-69.9,124z M86.9,111.7
			c-0.2,0-0.4,0-0.6-0.1c-5.1-1.7-10.3-3.2-15.4-4.5c-1.1-0.3-1.7-1.4-1.4-2.4c0.3-1.1,1.4-1.7,2.4-1.5c5.2,1.3,10.5,2.8,15.6,4.6
			c1.1,0.3,1.6,1.5,1.3,2.5C88.6,111.2,87.8,111.7,86.9,111.7z M-24.5,107.4c-0.9,0-1.7-0.6-1.9-1.5c-0.3-1.1,0.4-2.2,1.5-2.4
			c5.3-1.3,10.7-2.4,16-3.3c1.1-0.2,2.1,0.6,2.3,1.6c0.2,1.1-0.6,2.1-1.6,2.3c-5.2,0.9-10.5,2-15.7,3.2
			C-24.2,107.4-24.3,107.4-24.5,107.4z M39.6,101.9c0,0-0.1,0-0.2,0c-4.8-0.4-9.7,1.2-14.4,1.2l-1.5,1.8c0,0,0,0,0,0
			c-1.1,0-2-2.7-2-3.8c0-1.1,0.9-2.9,2-2.9l1.6-0.5c4.9,0,9.9,0,14.8,0.4c1.1,0.1,1.9,0.9,1.8,2C41.5,101.2,40.6,101.9,39.6,101.9z"
			/>
		<path class="st0" d="M6.9,278.5c-0.5,0-1.1-0.2-1.4-0.6c-0.8-0.8-0.7-2.1,0.1-2.8c2.1-2,4.2-3.8,6.3-5.3c0.9-0.7,2.1-0.5,2.8,0.4
			s0.5,2.1-0.4,2.8c-1.9,1.5-3.9,3.1-5.9,5C7.9,278.3,7.4,278.5,6.9,278.5z"/>
	</g>
	<g>
		<polygon class="st1" points="189,123.3 9,183.3 41,207.3 		"/>
		<polygon class="st2" points="41,251.3 189,123.3 41,227.3 		"/>
		<polygon class="st3" points="65,219.3 41,251.3 41,207.3 189,123.3 		"/>
		<polygon class="st4" points="65,219.3 105,259.3 189,123.3 		"/>
	</g>
	<g>
		<path class="st0" d="M57,423.3c-1.3,0-2.6,0.1-3.9,0.3c-7.3-9.8-18.9-16.3-32.1-16.3c-22.1,0-40,17.9-40,40c0,1.3,0.1,2.6,0.2,3.9
			c-4.9,3.6-8.2,10.3-8.2,16.9c0,11,8.9,20.8,20,20.8c4.3,0,22.1,0,28,0c6.9,0,29.8,0,36,0c17.7,0,32-15.2,32-32.8
			S74.7,423.3,57,423.3z"/>
		<path class="st1" d="M57,423.3c-1.3,0-2.6,0.1-3.9,0.3c-7.3-9.8-18.9-16.3-32.1-16.3c-1.4,0-2.8,0.1-4.2,0.2
			c11.6,1.1,21.8,7.1,28.4,16c1.3-0.2,2.6-0.3,3.9-0.3c17.7,0,32,15.2,32,32.8S66.7,489,49,489c3.4,0,6.3,0,8,0
			c17.7,0,32-15.2,32-32.8S74.7,423.3,57,423.3z"/>
	</g>
</g>
</svg>
